<?xml version="1.0" encoding="UTF-8"?>
<svg xmlns="http://www.w3.org/2000/svg" version="1.1" width="172mm" height="166mm" viewBox="0 0 172 166">
<rect x="0" y="0" width="172" height="166" fill="#ffffff"/>
<rect x="46" y="13" width="10" height="10" fill="#ffffff"/>
<rect x="56" y="13" width="10" height="10" fill="#000000"/>
<rect x="66" y="13" width="10" height="10" fill="#ffffff"/>
<rect x="76" y="13" width="10" height="10" fill="#000000"/>
<rect x="86" y="13" width="10" height="10" fill="#ffffff"/>
<rect x="96" y="13" width="10" height="10" fill="#000000"/>
<rect x="106" y="13" width="10" height="10" fill="#ffffff"/>
<rect x="116" y="13" width="10" height="10" fill="#000000"/>
<rect x="46" y="23" width="10" height="10" fill="#000000"/>
<rect x="56" y="23" width="10" height="10" fill="#ffffff"/>
<rect x="66" y="23" width="10" height="10" fill="#000000"/>
<rect x="76" y="23" width="10" height="10" fill="#ffffff"/>
<rect x="86" y="23" width="10" height="10" fill="#000000"/>
<rect x="96" y="23" width="10" height="10" fill="#ffffff"/>
<rect x="106" y="23" width="10" height="10" fill="#000000"/>
<rect x="116" y="23" width="10" height="10" fill="#ffffff"/>
<rect x="46" y="33" width="10" height="10" fill="#ffffff"/>
<rect x="56" y="33" width="10" height="10" fill="#000000"/>
<rect x="66" y="33" width="10" height="10" fill="#ffffff"/>
<rect x="76" y="33" width="10" height="10" fill="#000000"/>
<rect x="86" y="33" width="10" height="10" fill="#ffffff"/>
<rect x="96" y="33" width="10" height="10" fill="#000000"/>
<rect x="106" y="33" width="10" height="10" fill="#ffffff"/>
<rect x="116" y="33" width="10" height="10" fill="#000000"/>
<rect x="46" y="43" width="10" height="10" fill="#000000"/>
<rect x="56" y="43" width="10" height="10" fill="#ffffff"/>
<rect x="66" y="43" width="10" height="10" fill="#000000"/>
<rect x="76" y="43" width="10" height="10" fill="#ffffff"/>
<rect x="86" y="43" width="10" height="10" fill="#000000"/>
<rect x="96" y="43" width="10" height="10" fill="#ffffff"/>
<rect x="106" y="43" width="10" height="10" fill="#000000"/>
<rect x="116" y="43" width="10" height="10" fill="#ffffff"/>
<rect x="46" y="53" width="10" height="10" fill="#ffffff"/>
<rect x="56" y="53" width="10" height="10" fill="#000000"/>
<rect x="66" y="53" width="10" height="10" fill="#ffffff"/>
<rect x="76" y="53" width="10" height="10" fill="#000000"/>
<rect x="86" y="53" width="10" height="10" fill="#ffffff"/>
<rect x="96" y="53" width="10" height="10" fill="#000000"/>
<rect x="106" y="53" width="10" height="10" fill="#ffffff"/>
<rect x="116" y="53" width="10" height="10" fill="#000000"/>
<rect x="46" y="63" width="10" height="10" fill="#000000"/>
<rect x="56" y="63" width="10" height="10" fill="#ffffff"/>
<rect x="66" y="63" width="10" height="10" fill="#000000"/>
<rect x="76" y="63" width="10" height="10" fill="#ffffff"/>
<rect x="86" y="63" width="10" height="10" fill="#000000"/>
<rect x="96" y="63" width="10" height="10" fill="#ffffff"/>
<rect x="106" y="63" width="10" height="10" fill="#000000"/>
<rect x="116" y="63" width="10" height="10" fill="#ffffff"/>
<rect x="46" y="73" width="10" height="10" fill="#ffffff"/>
<rect x="56" y="73" width="10" height="10" fill="#000000"/>
<rect x="66" y="73" width="10" height="10" fill="#ffffff"/>
<rect x="76" y="73" width="10" height="10" fill="#000000"/>
<rect x="86" y="73" width="10" height="10" fill="#ffffff"/>
<rect x="96" y="73" width="10" height="10" fill="#000000"/>
<rect x="106" y="73" width="10" height="10" fill="#ffffff"/>
<rect x="116" y="73" width="10" height="10" fill="#000000"/>
<rect x="46" y="83" width="10" height="10" fill="#000000"/>
<rect x="56" y="83" width="10" height="10" fill="#ffffff"/>
<rect x="66" y="83" width="10" height="10" fill="#000000"/>
<rect x="76" y="83" width="10" height="10" fill="#ffffff"/>
<rect x="86" y="83" width="10" height="10" fill="#000000"/>
<rect x="96" y="83" width="10" height="10" fill="#ffffff"/>
<rect x="106" y="83" width="10" height="10" fill="#000000"/>
<rect x="116" y="83" width="10" height="10" fill="#ffffff"/>
<rect x="46" y="93" width="10" height="10" fill="#ffffff"/>
<rect x="56" y="93" width="10" height="10" fill="#000000"/>
<rect x="66" y="93" width="10" height="10" fill="#ffffff"/>
<rect x="76" y="93" width="10" height="10" fill="#000000"/>
<rect x="86" y="93" width="10" height="10" fill="#ffffff"/>
<rect x="96" y="93" width="10" height="10" fill="#000000"/>
<rect x="106" y="93" width="10" height="10" fill="#ffffff"/>
<rect x="116" y="93" width="10" height="10" fill="#000000"/>
<rect x="46" y="103" width="10" height="10" fill="#000000"/>
<rect x="56" y="103" width="10" height="10" fill="#ffffff"/>
<rect x="66" y="103" width="10" height="10" fill="#000000"/>
<rect x="76" y="103" width="10" height="10" fill="#ffffff"/>
<rect x="86" y="103" width="10" height="10" fill="#000000"/>
<rect x="96" y="103" width="10" height="10" fill="#ffffff"/>
<rect x="106" y="103" width="10" height="10" fill="#000000"/>
<rect x="116" y="103" width="10" height="10" fill="#ffffff"/>
<rect x="46" y="113" width="10" height="10" fill="#ffffff"/>
<rect x="56" y="113" width="10" height="10" fill="#000000"/>
<rect x="66" y="113" width="10" height="10" fill="#ffffff"/>
<rect x="76" y="113" width="10" height="10" fill="#000000"/>
<rect x="86" y="113" width="10" height="10" fill="#ffffff"/>
<rect x="96" y="113" width="10" height="10" fill="#000000"/>
<rect x="106" y="113" width="10" height="10" fill="#ffffff"/>
<rect x="116" y="113" width="10" height="10" fill="#000000"/>
<rect x="46" y="123" width="10" height="10" fill="#000000"/>
<rect x="56" y="123" width="10" height="10" fill="#ffffff"/>
<rect x="66" y="123" width="10" height="10" fill="#000000"/>
<rect x="76" y="123" width="10" height="10" fill="#ffffff"/>
<rect x="86" y="123" width="10" height="10" fill="#000000"/>
<rect x="96" y="123" width="10" height="10" fill="#ffffff"/>
<rect x="106" y="123" width="10" height="10" fill="#000000"/>
<rect x="116" y="123" width="10" height="10" fill="#ffffff"/>
<rect x="46" y="133" width="10" height="10" fill="#ffffff"/>
<rect x="56" y="133" width="10" height="10" fill="#000000"/>
<rect x="66" y="133" width="10" height="10" fill="#ffffff"/>
<rect x="76" y="133" width="10" height="10" fill="#000000"/>
<rect x="86" y="133" width="10" height="10" fill="#ffffff"/>
<rect x="96" y="133" width="10" height="10" fill="#000000"/>
<rect x="106" y="133" width="10" height="10" fill="#ffffff"/>
<rect x="116" y="133" width="10" height="10" fill="#000000"/>
<rect x="46" y="143" width="10" height="10" fill="#000000"/>
<rect x="56" y="143" width="10" height="10" fill="#ffffff"/>
<rect x="66" y="143" width="10" height="10" fill="#000000"/>
<rect x="76" y="143" width="10" height="10" fill="#ffffff"/>
<rect x="86" y="143" width="10" height="10" fill="#000000"/>
<rect x="96" y="143" width="10" height="10" fill="#ffffff"/>
<rect x="106" y="143" width="10" height="10" fill="#000000"/>
<rect x="116" y="143" width="10" height="10" fill="#ffffff"/>
<circle cx="51" cy="23" r="1.6667" fill="#000000"/>
<circle cx="61" cy="23" r="1.6667" fill="#000000"/>
<circle cx="71" cy="23" r="1.6667" fill="#000000"/>
<circle cx="81" cy="23" r="1.6667" fill="#000000"/>
<circle cx="91" cy="23" r="1.6667" fill="#000000"/>
<circle cx="101" cy="23" r="1.6667" fill="#000000"/>
<circle cx="111" cy="23" r="1.6667" fill="#000000"/>
<circle cx="121" cy="23" r="1.6667" fill="#000000"/>
<circle cx="51" cy="33" r="1.6667" fill="#ffffff"/>
<circle cx="61" cy="33" r="1.6667" fill="#000000"/>
<circle cx="71" cy="33" r="1.6667" fill="#ffffff"/>
<circle cx="81" cy="33" r="1.6667" fill="#ffffff"/>
<circle cx="91" cy="33" r="1.6667" fill="#000000"/>
<circle cx="101" cy="33" r="1.6667" fill="#ffffff"/>
<circle cx="111" cy="33" r="1.6667" fill="#ffffff"/>
<circle cx="121" cy="33" r="1.6667" fill="#000000"/>
<circle cx="51" cy="43" r="1.6667" fill="#000000"/>
<circle cx="61" cy="43" r="1.6667" fill="#000000"/>
<circle cx="71" cy="43" r="1.6667" fill="#000000"/>
<circle cx="81" cy="43" r="1.6667" fill="#000000"/>
<circle cx="91" cy="43" r="1.6667" fill="#000000"/>
<circle cx="101" cy="43" r="1.6667" fill="#000000"/>
<circle cx="111" cy="43" r="1.6667" fill="#000000"/>
<circle cx="121" cy="43" r="1.6667" fill="#000000"/>
<circle cx="51" cy="53" r="1.6667" fill="#000000"/>
<circle cx="61" cy="53" r="1.6667" fill="#ffffff"/>
<circle cx="71" cy="53" r="1.6667" fill="#ffffff"/>
<circle cx="81" cy="53" r="1.6667" fill="#000000"/>
<circle cx="91" cy="53" r="1.6667" fill="#ffffff"/>
<circle cx="101" cy="53" r="1.6667" fill="#ffffff"/>
<circle cx="111" cy="53" r="1.6667" fill="#000000"/>
<circle cx="121" cy="53" r="1.6667" fill="#ffffff"/>
<circle cx="51" cy="63" r="1.6667" fill="#ffffff"/>
<circle cx="61" cy="63" r="1.6667" fill="#000000"/>
<circle cx="71" cy="63" r="1.6667" fill="#000000"/>
<circle cx="81" cy="63" r="1.6667" fill="#ffffff"/>
<circle cx="91" cy="63" r="1.6667" fill="#000000"/>
<circle cx="101" cy="63" r="1.6667" fill="#000000"/>
<circle cx="111" cy="63" r="1.6667" fill="#ffffff"/>
<circle cx="121" cy="63" r="1.6667" fill="#000000"/>
<circle cx="51" cy="73" r="1.6667" fill="#000000"/>
<circle cx="61" cy="73" r="1.6667" fill="#ffffff"/>
<circle cx="71" cy="73" r="1.6667" fill="#ffffff"/>
<circle cx="81" cy="73" r="1.6667" fill="#000000"/>
<circle cx="91" cy="73" r="1.6667" fill="#ffffff"/>
<circle cx="101" cy="73" r="1.6667" fill="#ffffff"/>
<circle cx="111" cy="73" r="1.6667" fill="#000000"/>
<circle cx="121" cy="73" r="1.6667" fill="#ffffff"/>
<circle cx="51" cy="83" r="1.6667" fill="#000000"/>
<circle cx="61" cy="83" r="1.6667" fill="#ffffff"/>
<circle cx="71" cy="83" r="1.6667" fill="#000000"/>
<circle cx="81" cy="83" r="1.6667" fill="#000000"/>
<circle cx="91" cy="83" r="1.6667" fill="#ffffff"/>
<circle cx="101" cy="83" r="1.6667" fill="#000000"/>
<circle cx="111" cy="83" r="1.6667" fill="#000000"/>
<circle cx="121" cy="83" r="1.6667" fill="#ffffff"/>
<circle cx="51" cy="93" r="1.6667" fill="#000000"/>
<circle cx="61" cy="93" r="1.6667" fill="#000000"/>
<circle cx="71" cy="93" r="1.6667" fill="#ffffff"/>
<circle cx="81" cy="93" r="1.6667" fill="#000000"/>
<circle cx="91" cy="93" r="1.6667" fill="#000000"/>
<circle cx="101" cy="93" r="1.6667" fill="#ffffff"/>
<circle cx="111" cy="93" r="1.6667" fill="#000000"/>
<circle cx="121" cy="93" r="1.6667" fill="#000000"/>
<circle cx="51" cy="103" r="1.6667" fill="#000000"/>
<circle cx="61" cy="103" r="1.6667" fill="#ffffff"/>
<circle cx="71" cy="103" r="1.6667" fill="#000000"/>
<circle cx="81" cy="103" r="1.6667" fill="#000000"/>
<circle cx="91" cy="103" r="1.6667" fill="#ffffff"/>
<circle cx="101" cy="103" r="1.6667" fill="#000000"/>
<circle cx="111" cy="103" r="1.6667" fill="#000000"/>
<circle cx="121" cy="103" r="1.6667" fill="#ffffff"/>
<circle cx="51" cy="113" r="1.6667" fill="#ffffff"/>
<circle cx="61" cy="113" r="1.6667" fill="#ffffff"/>
<circle cx="71" cy="113" r="1.6667" fill="#000000"/>
<circle cx="81" cy="113" r="1.6667" fill="#ffffff"/>
<circle cx="91" cy="113" r="1.6667" fill="#ffffff"/>
<circle cx="101" cy="113" r="1.6667" fill="#000000"/>
<circle cx="111" cy="113" r="1.6667" fill="#ffffff"/>
<circle cx="121" cy="113" r="1.6667" fill="#ffffff"/>
<circle cx="51" cy="123" r="1.6667" fill="#000000"/>
<circle cx="61" cy="123" r="1.6667" fill="#000000"/>
<circle cx="71" cy="123" r="1.6667" fill="#ffffff"/>
<circle cx="81" cy="123" r="1.6667" fill="#000000"/>
<circle cx="91" cy="123" r="1.6667" fill="#000000"/>
<circle cx="101" cy="123" r="1.6667" fill="#ffffff"/>
<circle cx="111" cy="123" r="1.6667" fill="#000000"/>
<circle cx="121" cy="123" r="1.6667" fill="#000000"/>
<circle cx="51" cy="133" r="1.6667" fill="#000000"/>
<circle cx="61" cy="133" r="1.6667" fill="#000000"/>
<circle cx="71" cy="133" r="1.6667" fill="#000000"/>
<circle cx="81" cy="133" r="1.6667" fill="#000000"/>
<circle cx="91" cy="133" r="1.6667" fill="#000000"/>
<circle cx="101" cy="133" r="1.6667" fill="#000000"/>
<circle cx="111" cy="133" r="1.6667" fill="#000000"/>
<circle cx="121" cy="133" r="1.6667" fill="#000000"/>
<circle cx="51" cy="143" r="1.6667" fill="#000000"/>
<circle cx="61" cy="143" r="1.6667" fill="#000000"/>
<circle cx="71" cy="143" r="1.6667" fill="#000000"/>
<circle cx="81" cy="143" r="1.6667" fill="#000000"/>
<circle cx="91" cy="143" r="1.6667" fill="#000000"/>
<circle cx="101" cy="143" r="1.6667" fill="#000000"/>
<circle cx="111" cy="143" r="1.6667" fill="#000000"/>
<circle cx="121" cy="143" r="1.6667" fill="#000000"/>
<circle cx="56" cy="18" r="1.6667" fill="#000000"/>
<circle cx="66" cy="18" r="1.6667" fill="#ffffff"/>
<circle cx="76" cy="18" r="1.6667" fill="#ffffff"/>
<circle cx="86" cy="18" r="1.6667" fill="#000000"/>
<circle cx="96" cy="18" r="1.6667" fill="#000000"/>
<circle cx="106" cy="18" r="1.6667" fill="#000000"/>
<circle cx="116" cy="18" r="1.6667" fill="#000000"/>
<circle cx="56" cy="28" r="1.6667" fill="#000000"/>
<circle cx="66" cy="28" r="1.6667" fill="#ffffff"/>
<circle cx="76" cy="28" r="1.6667" fill="#000000"/>
<circle cx="86" cy="28" r="1.6667" fill="#000000"/>
<circle cx="96" cy="28" r="1.6667" fill="#000000"/>
<circle cx="106" cy="28" r="1.6667" fill="#000000"/>
<circle cx="116" cy="28" r="1.6667" fill="#000000"/>
<circle cx="56" cy="38" r="1.6667" fill="#000000"/>
<circle cx="66" cy="38" r="1.6667" fill="#000000"/>
<circle cx="76" cy="38" r="1.6667" fill="#000000"/>
<circle cx="86" cy="38" r="1.6667" fill="#000000"/>
<circle cx="96" cy="38" r="1.6667" fill="#ffffff"/>
<circle cx="106" cy="38" r="1.6667" fill="#000000"/>
<circle cx="116" cy="38" r="1.6667" fill="#ffffff"/>
<circle cx="56" cy="48" r="1.6667" fill="#000000"/>
<circle cx="66" cy="48" r="1.6667" fill="#ffffff"/>
<circle cx="76" cy="48" r="1.6667" fill="#ffffff"/>
<circle cx="86" cy="48" r="1.6667" fill="#000000"/>
<circle cx="96" cy="48" r="1.6667" fill="#000000"/>
<circle cx="106" cy="48" r="1.6667" fill="#000000"/>
<circle cx="116" cy="48" r="1.6667" fill="#000000"/>
<circle cx="56" cy="58" r="1.6667" fill="#000000"/>
<circle cx="66" cy="58" r="1.6667" fill="#ffffff"/>
<circle cx="76" cy="58" r="1.6667" fill="#000000"/>
<circle cx="86" cy="58" r="1.6667" fill="#000000"/>
<circle cx="96" cy="58" r="1.6667" fill="#000000"/>
<circle cx="106" cy="58" r="1.6667" fill="#000000"/>
<circle cx="116" cy="58" r="1.6667" fill="#000000"/>
<circle cx="56" cy="68" r="1.6667" fill="#000000"/>
<circle cx="66" cy="68" r="1.6667" fill="#000000"/>
<circle cx="76" cy="68" r="1.6667" fill="#000000"/>
<circle cx="86" cy="68" r="1.6667" fill="#000000"/>
<circle cx="96" cy="68" r="1.6667" fill="#ffffff"/>
<circle cx="106" cy="68" r="1.6667" fill="#000000"/>
<circle cx="116" cy="68" r="1.6667" fill="#ffffff"/>
<circle cx="56" cy="78" r="1.6667" fill="#000000"/>
<circle cx="66" cy="78" r="1.6667" fill="#ffffff"/>
<circle cx="76" cy="78" r="1.6667" fill="#ffffff"/>
<circle cx="86" cy="78" r="1.6667" fill="#000000"/>
<circle cx="96" cy="78" r="1.6667" fill="#000000"/>
<circle cx="106" cy="78" r="1.6667" fill="#000000"/>
<circle cx="116" cy="78" r="1.6667" fill="#000000"/>
<circle cx="56" cy="88" r="1.6667" fill="#000000"/>
<circle cx="66" cy="88" r="1.6667" fill="#ffffff"/>
<circle cx="76" cy="88" r="1.6667" fill="#000000"/>
<circle cx="86" cy="88" r="1.6667" fill="#000000"/>
<circle cx="96" cy="88" r="1.6667" fill="#000000"/>
<circle cx="106" cy="88" r="1.6667" fill="#000000"/>
<circle cx="116" cy="88" r="1.6667" fill="#000000"/>
<circle cx="56" cy="98" r="1.6667" fill="#000000"/>
<circle cx="66" cy="98" r="1.6667" fill="#000000"/>
<circle cx="76" cy="98" r="1.6667" fill="#000000"/>
<circle cx="86" cy="98" r="1.6667" fill="#000000"/>
<circle cx="96" cy="98" r="1.6667" fill="#ffffff"/>
<circle cx="106" cy="98" r="1.6667" fill="#000000"/>
<circle cx="116" cy="98" r="1.6667" fill="#ffffff"/>
<circle cx="56" cy="108" r="1.6667" fill="#000000"/>
<circle cx="66" cy="108" r="1.6667" fill="#ffffff"/>
<circle cx="76" cy="108" r="1.6667" fill="#ffffff"/>
<circle cx="86" cy="108" r="1.6667" fill="#000000"/>
<circle cx="96" cy="108" r="1.6667" fill="#000000"/>
<circle cx="106" cy="108" r="1.6667" fill="#000000"/>
<circle cx="116" cy="108" r="1.6667" fill="#000000"/>
<circle cx="56" cy="118" r="1.6667" fill="#000000"/>
<circle cx="66" cy="118" r="1.6667" fill="#ffffff"/>
<circle cx="76" cy="118" r="1.6667" fill="#000000"/>
<circle cx="86" cy="118" r="1.6667" fill="#000000"/>
<circle cx="96" cy="118" r="1.6667" fill="#000000"/>
<circle cx="106" cy="118" r="1.6667" fill="#000000"/>
<circle cx="116" cy="118" r="1.6667" fill="#000000"/>
<circle cx="56" cy="128" r="1.6667" fill="#000000"/>
<circle cx="66" cy="128" r="1.6667" fill="#000000"/>
<circle cx="76" cy="128" r="1.6667" fill="#000000"/>
<circle cx="86" cy="128" r="1.6667" fill="#000000"/>
<circle cx="96" cy="128" r="1.6667" fill="#ffffff"/>
<circle cx="106" cy="128" r="1.6667" fill="#000000"/>
<circle cx="116" cy="128" r="1.6667" fill="#ffffff"/>
<circle cx="56" cy="138" r="1.6667" fill="#000000"/>
<circle cx="66" cy="138" r="1.6667" fill="#ffffff"/>
<circle cx="76" cy="138" r="1.6667" fill="#ffffff"/>
<circle cx="86" cy="138" r="1.6667" fill="#000000"/>
<circle cx="96" cy="138" r="1.6667" fill="#000000"/>
<circle cx="106" cy="138" r="1.6667" fill="#000000"/>
<circle cx="116" cy="138" r="1.6667" fill="#000000"/>
<circle cx="56" cy="148" r="1.6667" fill="#000000"/>
<circle cx="66" cy="148" r="1.6667" fill="#ffffff"/>
<circle cx="76" cy="148" r="1.6667" fill="#000000"/>
<circle cx="86" cy="148" r="1.6667" fill="#000000"/>
<circle cx="96" cy="148" r="1.6667" fill="#000000"/>
<circle cx="106" cy="148" r="1.6667" fill="#000000"/>
<circle cx="116" cy="148" r="1.6667" fill="#000000"/>

  <g id="annotations" font-family="system-ui, sans-serif">
    <rect x="46.000" y="138.000" width="80.000" height="10.000" fill="#33C6E3" fill-opacity="0.30"/>
    <line x1="39.000" y1="18.000" x2="133.000" y2="18.000" stroke="#D2542F" stroke-width="0.6" stroke-dasharray="3 2"/>
<text x="135.000" y="19.500" font-size="4.2" fill="#D2542F">trim</text>
    <line x1="39.000" y1="148.000" x2="133.000" y2="148.000" stroke="#D2542F" stroke-width="0.6" stroke-dasharray="3 2"/>
<text x="135.000" y="149.500" font-size="4.2" fill="#D2542F">trim</text>
    <text x="135.000" y="144.600" font-size="4.2" fill="#0B132B">spare</text>
    <text x="12.000" y="8.000" font-size="4.6" font-weight="600" fill="#0B132B">Trim on the dashed lines, wrap, lay the spare piece over the first.</text>
    <text x="12.000" y="161.000" font-size="4.0" fill="#0B132B" fill-opacity="0.65">14 pieces printed · 12 wrap · 1 spare · ⌀ 38.2 mm</text>
  </g>
</svg>
