  0
SECTION
  2
HEADER
  9
$ACADVER
  1
AC1015
  9
$HANDSEED
  5
FFFF
  9
$INSUNITS
 70
4
  9
$LUNITS
 70
2
  9
$LUPREC
 70
6
  9
$EXTMIN
 10
0.000000
 20
0.000000
 30
0.000000
  9
$EXTMAX
 10
210.000000
 20
297.000000
 30
0.000000
  0
ENDSEC
  0
SECTION
  2
TABLES
  0
TABLE
  2
LTYPE
 70
1
  0
LTYPE
  5
14
100
AcDbSymbolTableRecord
100
AcDbLinetypeTableRecord
  2
CONTINUOUS
 70
0
  3
Solid line
 72
65
 73
0
 40
0.000000
  0
ENDTAB
  0
TABLE
  2
LAYER
 70
2
  0
LAYER
  5
10
100
AcDbSymbolTableRecord
100
AcDbLayerTableRecord
  2
0
 70
0
 62
7
  6
CONTINUOUS
  0
LAYER
  5
11
100
AcDbSymbolTableRecord
100
AcDbLayerTableRecord
  2
PATTERN
 70
0
 62
7
  6
CONTINUOUS
  0
ENDTAB
  0
TABLE
  2
BLOCK_RECORD
 70
2
  0
BLOCK_RECORD
  5
1F
100
AcDbSymbolTableRecord
100
AcDbBlockTableRecord
  2
*Model_Space
  0
BLOCK_RECORD
  5
1E
100
AcDbSymbolTableRecord
100
AcDbBlockTableRecord
  2
*Paper_Space
  0
ENDTAB
  0
ENDSEC
  0
SECTION
  2
BLOCKS
  0
BLOCK
  5
20
330
1F
100
AcDbEntity
  8
0
100
AcDbBlockBegin
  2
*Model_Space
 70
0
 10
0.000000
 20
0.000000
 30
0.000000
  3
*Model_Space
  1

  0
ENDBLK
  5
21
330
1F
100
AcDbEntity
  8
0
100
AcDbBlockEnd
  0
BLOCK
  5
22
330
1E
100
AcDbEntity
 67
1
  8
0
100
AcDbBlockBegin
  2
*Paper_Space
 70
0
 10
0.000000
 20
0.000000
 30
0.000000
  3
*Paper_Space
  1

  0
ENDBLK
  5
23
330
1E
100
AcDbEntity
 67
1
  8
0
100
AcDbBlockEnd
  0
ENDSEC
  0
SECTION
  2
ENTITIES
  0
LWPOLYLINE
  5
100
330
1F
100
AcDbEntity
  8
PATTERN
100
AcDbPolyline
 90
4
 70
1
 10
87.000000
 20
154.500000
 10
99.000000
 20
154.500000
 10
99.000000
 20
166.500000
 10
87.000000
 20
166.500000
  0
LWPOLYLINE
  5
101
330
1F
100
AcDbEntity
  8
PATTERN
100
AcDbPolyline
 90
4
 70
1
 10
111.000000
 20
154.500000
 10
123.000000
 20
154.500000
 10
123.000000
 20
166.500000
 10
111.000000
 20
166.500000
  0
LWPOLYLINE
  5
102
330
1F
100
AcDbEntity
  8
PATTERN
100
AcDbPolyline
 90
4
 70
1
 10
99.000000
 20
142.500000
 10
111.000000
 20
142.500000
 10
111.000000
 20
154.500000
 10
99.000000
 20
154.500000
  0
LWPOLYLINE
  5
103
330
1F
100
AcDbEntity
  8
PATTERN
100
AcDbPolyline
 90
4
 70
1
 10
87.000000
 20
130.500000
 10
99.000000
 20
130.500000
 10
99.000000
 20
142.500000
 10
87.000000
 20
142.500000
  0
LWPOLYLINE
  5
104
330
1F
100
AcDbEntity
  8
PATTERN
100
AcDbPolyline
 90
4
 70
1
 10
111.000000
 20
130.500000
 10
123.000000
 20
130.500000
 10
123.000000
 20
142.500000
 10
111.000000
 20
142.500000
  0
LWPOLYLINE
  5
105
330
1F
100
AcDbEntity
  8
PATTERN
100
AcDbPolyline
 90
4
 70
1
 10
100.800000
 20
163.300000
 10
102.200000
 20
163.300000
 10
102.200000
 20
164.700000
 10
100.800000
 20
164.700000
  0
LWPOLYLINE
  5
106
330
1F
100
AcDbEntity
  8
PATTERN
100
AcDbPolyline
 90
4
 70
1
 10
102.200000
 20
163.300000
 10
103.600000
 20
163.300000
 10
103.600000
 20
164.700000
 10
102.200000
 20
164.700000
  0
LWPOLYLINE
  5
107
330
1F
100
AcDbEntity
  8
PATTERN
100
AcDbPolyline
 90
4
 70
1
 10
103.600000
 20
163.300000
 10
105.000000
 20
163.300000
 10
105.000000
 20
164.700000
 10
103.600000
 20
164.700000
  0
LWPOLYLINE
  5
108
330
1F
100
AcDbEntity
  8
PATTERN
100
AcDbPolyline
 90
4
 70
1
 10
105.000000
 20
163.300000
 10
106.400000
 20
163.300000
 10
106.400000
 20
164.700000
 10
105.000000
 20
164.700000
  0
LWPOLYLINE
  5
109
330
1F
100
AcDbEntity
  8
PATTERN
100
AcDbPolyline
 90
4
 70
1
 10
106.400000
 20
163.300000
 10
107.800000
 20
163.300000
 10
107.800000
 20
164.700000
 10
106.400000
 20
164.700000
  0
LWPOLYLINE
  5
10A
330
1F
100
AcDbEntity
  8
PATTERN
100
AcDbPolyline
 90
4
 70
1
 10
107.800000
 20
163.300000
 10
109.200000
 20
163.300000
 10
109.200000
 20
164.700000
 10
107.800000
 20
164.700000
  0
LWPOLYLINE
  5
10B
330
1F
100
AcDbEntity
  8
PATTERN
100
AcDbPolyline
 90
4
 70
1
 10
100.800000
 20
161.900000
 10
102.200000
 20
161.900000
 10
102.200000
 20
163.300000
 10
100.800000
 20
163.300000
  0
LWPOLYLINE
  5
10C
330
1F
100
AcDbEntity
  8
PATTERN
100
AcDbPolyline
 90
4
 70
1
 10
103.600000
 20
161.900000
 10
105.000000
 20
161.900000
 10
105.000000
 20
163.300000
 10
103.600000
 20
163.300000
  0
LWPOLYLINE
  5
10D
330
1F
100
AcDbEntity
  8
PATTERN
100
AcDbPolyline
 90
4
 70
1
 10
107.800000
 20
161.900000
 10
109.200000
 20
161.900000
 10
109.200000
 20
163.300000
 10
107.800000
 20
163.300000
  0
LWPOLYLINE
  5
10E
330
1F
100
AcDbEntity
  8
PATTERN
100
AcDbPolyline
 90
4
 70
1
 10
100.800000
 20
160.500000
 10
102.200000
 20
160.500000
 10
102.200000
 20
161.900000
 10
100.800000
 20
161.900000
  0
LWPOLYLINE
  5
10F
330
1F
100
AcDbEntity
  8
PATTERN
100
AcDbPolyline
 90
4
 70
1
 10
102.200000
 20
160.500000
 10
103.600000
 20
160.500000
 10
103.600000
 20
161.900000
 10
102.200000
 20
161.900000
  0
LWPOLYLINE
  5
110
330
1F
100
AcDbEntity
  8
PATTERN
100
AcDbPolyline
 90
4
 70
1
 10
105.000000
 20
160.500000
 10
106.400000
 20
160.500000
 10
106.400000
 20
161.900000
 10
105.000000
 20
161.900000
  0
LWPOLYLINE
  5
111
330
1F
100
AcDbEntity
  8
PATTERN
100
AcDbPolyline
 90
4
 70
1
 10
107.800000
 20
160.500000
 10
109.200000
 20
160.500000
 10
109.200000
 20
161.900000
 10
107.800000
 20
161.900000
  0
LWPOLYLINE
  5
112
330
1F
100
AcDbEntity
  8
PATTERN
100
AcDbPolyline
 90
4
 70
1
 10
100.800000
 20
159.100000
 10
102.200000
 20
159.100000
 10
102.200000
 20
160.500000
 10
100.800000
 20
160.500000
  0
LWPOLYLINE
  5
113
330
1F
100
AcDbEntity
  8
PATTERN
100
AcDbPolyline
 90
4
 70
1
 10
102.200000
 20
159.100000
 10
103.600000
 20
159.100000
 10
103.600000
 20
160.500000
 10
102.200000
 20
160.500000
  0
LWPOLYLINE
  5
114
330
1F
100
AcDbEntity
  8
PATTERN
100
AcDbPolyline
 90
4
 70
1
 10
103.600000
 20
159.100000
 10
105.000000
 20
159.100000
 10
105.000000
 20
160.500000
 10
103.600000
 20
160.500000
  0
LWPOLYLINE
  5
115
330
1F
100
AcDbEntity
  8
PATTERN
100
AcDbPolyline
 90
4
 70
1
 10
107.800000
 20
159.100000
 10
109.200000
 20
159.100000
 10
109.200000
 20
160.500000
 10
107.800000
 20
160.500000
  0
LWPOLYLINE
  5
116
330
1F
100
AcDbEntity
  8
PATTERN
100
AcDbPolyline
 90
4
 70
1
 10
100.800000
 20
157.700000
 10
102.200000
 20
157.700000
 10
102.200000
 20
159.100000
 10
100.800000
 20
159.100000
  0
LWPOLYLINE
  5
117
330
1F
100
AcDbEntity
  8
PATTERN
100
AcDbPolyline
 90
4
 70
1
 10
102.200000
 20
157.700000
 10
103.600000
 20
157.700000
 10
103.600000
 20
159.100000
 10
102.200000
 20
159.100000
  0
LWPOLYLINE
  5
118
330
1F
100
AcDbEntity
  8
PATTERN
100
AcDbPolyline
 90
4
 70
1
 10
103.600000
 20
157.700000
 10
105.000000
 20
157.700000
 10
105.000000
 20
159.100000
 10
103.600000
 20
159.100000
  0
LWPOLYLINE
  5
119
330
1F
100
AcDbEntity
  8
PATTERN
100
AcDbPolyline
 90
4
 70
1
 10
106.400000
 20
157.700000
 10
107.800000
 20
157.700000
 10
107.800000
 20
159.100000
 10
106.400000
 20
159.100000
  0
LWPOLYLINE
  5
11A
330
1F
100
AcDbEntity
  8
PATTERN
100
AcDbPolyline
 90
4
 70
1
 10
107.800000
 20
157.700000
 10
109.200000
 20
157.700000
 10
109.200000
 20
159.100000
 10
107.800000
 20
159.100000
  0
LWPOLYLINE
  5
11B
330
1F
100
AcDbEntity
  8
PATTERN
100
AcDbPolyline
 90
4
 70
1
 10
100.800000
 20
156.300000
 10
102.200000
 20
156.300000
 10
102.200000
 20
157.700000
 10
100.800000
 20
157.700000
  0
LWPOLYLINE
  5
11C
330
1F
100
AcDbEntity
  8
PATTERN
100
AcDbPolyline
 90
4
 70
1
 10
102.200000
 20
156.300000
 10
103.600000
 20
156.300000
 10
103.600000
 20
157.700000
 10
102.200000
 20
157.700000
  0
LWPOLYLINE
  5
11D
330
1F
100
AcDbEntity
  8
PATTERN
100
AcDbPolyline
 90
4
 70
1
 10
103.600000
 20
156.300000
 10
105.000000
 20
156.300000
 10
105.000000
 20
157.700000
 10
103.600000
 20
157.700000
  0
LWPOLYLINE
  5
11E
330
1F
100
AcDbEntity
  8
PATTERN
100
AcDbPolyline
 90
4
 70
1
 10
105.000000
 20
156.300000
 10
106.400000
 20
156.300000
 10
106.400000
 20
157.700000
 10
105.000000
 20
157.700000
  0
LWPOLYLINE
  5
11F
330
1F
100
AcDbEntity
  8
PATTERN
100
AcDbPolyline
 90
4
 70
1
 10
106.400000
 20
156.300000
 10
107.800000
 20
156.300000
 10
107.800000
 20
157.700000
 10
106.400000
 20
157.700000
  0
LWPOLYLINE
  5
120
330
1F
100
AcDbEntity
  8
PATTERN
100
AcDbPolyline
 90
4
 70
1
 10
107.800000
 20
156.300000
 10
109.200000
 20
156.300000
 10
109.200000
 20
157.700000
 10
107.800000
 20
157.700000
  0
LWPOLYLINE
  5
121
330
1F
100
AcDbEntity
  8
PATTERN
100
AcDbPolyline
 90
4
 70
1
 10
88.800000
 20
151.300000
 10
90.200000
 20
151.300000
 10
90.200000
 20
152.700000
 10
88.800000
 20
152.700000
  0
LWPOLYLINE
  5
122
330
1F
100
AcDbEntity
  8
PATTERN
100
AcDbPolyline
 90
4
 70
1
 10
90.200000
 20
151.300000
 10
91.600000
 20
151.300000
 10
91.600000
 20
152.700000
 10
90.200000
 20
152.700000
  0
LWPOLYLINE
  5
123
330
1F
100
AcDbEntity
  8
PATTERN
100
AcDbPolyline
 90
4
 70
1
 10
91.600000
 20
151.300000
 10
93.000000
 20
151.300000
 10
93.000000
 20
152.700000
 10
91.600000
 20
152.700000
  0
LWPOLYLINE
  5
124
330
1F
100
AcDbEntity
  8
PATTERN
100
AcDbPolyline
 90
4
 70
1
 10
93.000000
 20
151.300000
 10
94.400000
 20
151.300000
 10
94.400000
 20
152.700000
 10
93.000000
 20
152.700000
  0
LWPOLYLINE
  5
125
330
1F
100
AcDbEntity
  8
PATTERN
100
AcDbPolyline
 90
4
 70
1
 10
94.400000
 20
151.300000
 10
95.800000
 20
151.300000
 10
95.800000
 20
152.700000
 10
94.400000
 20
152.700000
  0
LWPOLYLINE
  5
126
330
1F
100
AcDbEntity
  8
PATTERN
100
AcDbPolyline
 90
4
 70
1
 10
95.800000
 20
151.300000
 10
97.200000
 20
151.300000
 10
97.200000
 20
152.700000
 10
95.800000
 20
152.700000
  0
LWPOLYLINE
  5
127
330
1F
100
AcDbEntity
  8
PATTERN
100
AcDbPolyline
 90
4
 70
1
 10
88.800000
 20
149.900000
 10
90.200000
 20
149.900000
 10
90.200000
 20
151.300000
 10
88.800000
 20
151.300000
  0
LWPOLYLINE
  5
128
330
1F
100
AcDbEntity
  8
PATTERN
100
AcDbPolyline
 90
4
 70
1
 10
90.200000
 20
149.900000
 10
91.600000
 20
149.900000
 10
91.600000
 20
151.300000
 10
90.200000
 20
151.300000
  0
LWPOLYLINE
  5
129
330
1F
100
AcDbEntity
  8
PATTERN
100
AcDbPolyline
 90
4
 70
1
 10
91.600000
 20
149.900000
 10
93.000000
 20
149.900000
 10
93.000000
 20
151.300000
 10
91.600000
 20
151.300000
  0
LWPOLYLINE
  5
12A
330
1F
100
AcDbEntity
  8
PATTERN
100
AcDbPolyline
 90
4
 70
1
 10
93.000000
 20
149.900000
 10
94.400000
 20
149.900000
 10
94.400000
 20
151.300000
 10
93.000000
 20
151.300000
  0
LWPOLYLINE
  5
12B
330
1F
100
AcDbEntity
  8
PATTERN
100
AcDbPolyline
 90
4
 70
1
 10
94.400000
 20
149.900000
 10
95.800000
 20
149.900000
 10
95.800000
 20
151.300000
 10
94.400000
 20
151.300000
  0
LWPOLYLINE
  5
12C
330
1F
100
AcDbEntity
  8
PATTERN
100
AcDbPolyline
 90
4
 70
1
 10
95.800000
 20
149.900000
 10
97.200000
 20
149.900000
 10
97.200000
 20
151.300000
 10
95.800000
 20
151.300000
  0
LWPOLYLINE
  5
12D
330
1F
100
AcDbEntity
  8
PATTERN
100
AcDbPolyline
 90
4
 70
1
 10
88.800000
 20
148.500000
 10
90.200000
 20
148.500000
 10
90.200000
 20
149.900000
 10
88.800000
 20
149.900000
  0
LWPOLYLINE
  5
12E
330
1F
100
AcDbEntity
  8
PATTERN
100
AcDbPolyline
 90
4
 70
1
 10
95.800000
 20
148.500000
 10
97.200000
 20
148.500000
 10
97.200000
 20
149.900000
 10
95.800000
 20
149.900000
  0
LWPOLYLINE
  5
12F
330
1F
100
AcDbEntity
  8
PATTERN
100
AcDbPolyline
 90
4
 70
1
 10
88.800000
 20
147.100000
 10
90.200000
 20
147.100000
 10
90.200000
 20
148.500000
 10
88.800000
 20
148.500000
  0
LWPOLYLINE
  5
130
330
1F
100
AcDbEntity
  8
PATTERN
100
AcDbPolyline
 90
4
 70
1
 10
91.600000
 20
147.100000
 10
93.000000
 20
147.100000
 10
93.000000
 20
148.500000
 10
91.600000
 20
148.500000
  0
LWPOLYLINE
  5
131
330
1F
100
AcDbEntity
  8
PATTERN
100
AcDbPolyline
 90
4
 70
1
 10
93.000000
 20
147.100000
 10
94.400000
 20
147.100000
 10
94.400000
 20
148.500000
 10
93.000000
 20
148.500000
  0
LWPOLYLINE
  5
132
330
1F
100
AcDbEntity
  8
PATTERN
100
AcDbPolyline
 90
4
 70
1
 10
95.800000
 20
147.100000
 10
97.200000
 20
147.100000
 10
97.200000
 20
148.500000
 10
95.800000
 20
148.500000
  0
LWPOLYLINE
  5
133
330
1F
100
AcDbEntity
  8
PATTERN
100
AcDbPolyline
 90
4
 70
1
 10
88.800000
 20
145.700000
 10
90.200000
 20
145.700000
 10
90.200000
 20
147.100000
 10
88.800000
 20
147.100000
  0
LWPOLYLINE
  5
134
330
1F
100
AcDbEntity
  8
PATTERN
100
AcDbPolyline
 90
4
 70
1
 10
91.600000
 20
145.700000
 10
93.000000
 20
145.700000
 10
93.000000
 20
147.100000
 10
91.600000
 20
147.100000
  0
LWPOLYLINE
  5
135
330
1F
100
AcDbEntity
  8
PATTERN
100
AcDbPolyline
 90
4
 70
1
 10
94.400000
 20
145.700000
 10
95.800000
 20
145.700000
 10
95.800000
 20
147.100000
 10
94.400000
 20
147.100000
  0
LWPOLYLINE
  5
136
330
1F
100
AcDbEntity
  8
PATTERN
100
AcDbPolyline
 90
4
 70
1
 10
95.800000
 20
145.700000
 10
97.200000
 20
145.700000
 10
97.200000
 20
147.100000
 10
95.800000
 20
147.100000
  0
LWPOLYLINE
  5
137
330
1F
100
AcDbEntity
  8
PATTERN
100
AcDbPolyline
 90
4
 70
1
 10
88.800000
 20
144.300000
 10
90.200000
 20
144.300000
 10
90.200000
 20
145.700000
 10
88.800000
 20
145.700000
  0
LWPOLYLINE
  5
138
330
1F
100
AcDbEntity
  8
PATTERN
100
AcDbPolyline
 90
4
 70
1
 10
90.200000
 20
144.300000
 10
91.600000
 20
144.300000
 10
91.600000
 20
145.700000
 10
90.200000
 20
145.700000
  0
LWPOLYLINE
  5
139
330
1F
100
AcDbEntity
  8
PATTERN
100
AcDbPolyline
 90
4
 70
1
 10
91.600000
 20
144.300000
 10
93.000000
 20
144.300000
 10
93.000000
 20
145.700000
 10
91.600000
 20
145.700000
  0
LWPOLYLINE
  5
13A
330
1F
100
AcDbEntity
  8
PATTERN
100
AcDbPolyline
 90
4
 70
1
 10
93.000000
 20
144.300000
 10
94.400000
 20
144.300000
 10
94.400000
 20
145.700000
 10
93.000000
 20
145.700000
  0
LWPOLYLINE
  5
13B
330
1F
100
AcDbEntity
  8
PATTERN
100
AcDbPolyline
 90
4
 70
1
 10
94.400000
 20
144.300000
 10
95.800000
 20
144.300000
 10
95.800000
 20
145.700000
 10
94.400000
 20
145.700000
  0
LWPOLYLINE
  5
13C
330
1F
100
AcDbEntity
  8
PATTERN
100
AcDbPolyline
 90
4
 70
1
 10
95.800000
 20
144.300000
 10
97.200000
 20
144.300000
 10
97.200000
 20
145.700000
 10
95.800000
 20
145.700000
  0
LWPOLYLINE
  5
13D
330
1F
100
AcDbEntity
  8
PATTERN
100
AcDbPolyline
 90
4
 70
1
 10
112.800000
 20
151.300000
 10
114.200000
 20
151.300000
 10
114.200000
 20
152.700000
 10
112.800000
 20
152.700000
  0
LWPOLYLINE
  5
13E
330
1F
100
AcDbEntity
  8
PATTERN
100
AcDbPolyline
 90
4
 70
1
 10
114.200000
 20
151.300000
 10
115.600000
 20
151.300000
 10
115.600000
 20
152.700000
 10
114.200000
 20
152.700000
  0
LWPOLYLINE
  5
13F
330
1F
100
AcDbEntity
  8
PATTERN
100
AcDbPolyline
 90
4
 70
1
 10
115.600000
 20
151.300000
 10
117.000000
 20
151.300000
 10
117.000000
 20
152.700000
 10
115.600000
 20
152.700000
  0
LWPOLYLINE
  5
140
330
1F
100
AcDbEntity
  8
PATTERN
100
AcDbPolyline
 90
4
 70
1
 10
117.000000
 20
151.300000
 10
118.400000
 20
151.300000
 10
118.400000
 20
152.700000
 10
117.000000
 20
152.700000
  0
LWPOLYLINE
  5
141
330
1F
100
AcDbEntity
  8
PATTERN
100
AcDbPolyline
 90
4
 70
1
 10
118.400000
 20
151.300000
 10
119.800000
 20
151.300000
 10
119.800000
 20
152.700000
 10
118.400000
 20
152.700000
  0
LWPOLYLINE
  5
142
330
1F
100
AcDbEntity
  8
PATTERN
100
AcDbPolyline
 90
4
 70
1
 10
119.800000
 20
151.300000
 10
121.200000
 20
151.300000
 10
121.200000
 20
152.700000
 10
119.800000
 20
152.700000
  0
LWPOLYLINE
  5
143
330
1F
100
AcDbEntity
  8
PATTERN
100
AcDbPolyline
 90
4
 70
1
 10
112.800000
 20
149.900000
 10
114.200000
 20
149.900000
 10
114.200000
 20
151.300000
 10
112.800000
 20
151.300000
  0
LWPOLYLINE
  5
144
330
1F
100
AcDbEntity
  8
PATTERN
100
AcDbPolyline
 90
4
 70
1
 10
114.200000
 20
149.900000
 10
115.600000
 20
149.900000
 10
115.600000
 20
151.300000
 10
114.200000
 20
151.300000
  0
LWPOLYLINE
  5
145
330
1F
100
AcDbEntity
  8
PATTERN
100
AcDbPolyline
 90
4
 70
1
 10
115.600000
 20
149.900000
 10
117.000000
 20
149.900000
 10
117.000000
 20
151.300000
 10
115.600000
 20
151.300000
  0
LWPOLYLINE
  5
146
330
1F
100
AcDbEntity
  8
PATTERN
100
AcDbPolyline
 90
4
 70
1
 10
119.800000
 20
149.900000
 10
121.200000
 20
149.900000
 10
121.200000
 20
151.300000
 10
119.800000
 20
151.300000
  0
LWPOLYLINE
  5
147
330
1F
100
AcDbEntity
  8
PATTERN
100
AcDbPolyline
 90
4
 70
1
 10
112.800000
 20
148.500000
 10
114.200000
 20
148.500000
 10
114.200000
 20
149.900000
 10
112.800000
 20
149.900000
  0
LWPOLYLINE
  5
148
330
1F
100
AcDbEntity
  8
PATTERN
100
AcDbPolyline
 90
4
 70
1
 10
114.200000
 20
148.500000
 10
115.600000
 20
148.500000
 10
115.600000
 20
149.900000
 10
114.200000
 20
149.900000
  0
LWPOLYLINE
  5
149
330
1F
100
AcDbEntity
  8
PATTERN
100
AcDbPolyline
 90
4
 70
1
 10
115.600000
 20
148.500000
 10
117.000000
 20
148.500000
 10
117.000000
 20
149.900000
 10
115.600000
 20
149.900000
  0
LWPOLYLINE
  5
14A
330
1F
100
AcDbEntity
  8
PATTERN
100
AcDbPolyline
 90
4
 70
1
 10
119.800000
 20
148.500000
 10
121.200000
 20
148.500000
 10
121.200000
 20
149.900000
 10
119.800000
 20
149.900000
  0
LWPOLYLINE
  5
14B
330
1F
100
AcDbEntity
  8
PATTERN
100
AcDbPolyline
 90
4
 70
1
 10
112.800000
 20
147.100000
 10
114.200000
 20
147.100000
 10
114.200000
 20
148.500000
 10
112.800000
 20
148.500000
  0
LWPOLYLINE
  5
14C
330
1F
100
AcDbEntity
  8
PATTERN
100
AcDbPolyline
 90
4
 70
1
 10
114.200000
 20
147.100000
 10
115.600000
 20
147.100000
 10
115.600000
 20
148.500000
 10
114.200000
 20
148.500000
  0
LWPOLYLINE
  5
14D
330
1F
100
AcDbEntity
  8
PATTERN
100
AcDbPolyline
 90
4
 70
1
 10
115.600000
 20
147.100000
 10
117.000000
 20
147.100000
 10
117.000000
 20
148.500000
 10
115.600000
 20
148.500000
  0
LWPOLYLINE
  5
14E
330
1F
100
AcDbEntity
  8
PATTERN
100
AcDbPolyline
 90
4
 70
1
 10
118.400000
 20
147.100000
 10
119.800000
 20
147.100000
 10
119.800000
 20
148.500000
 10
118.400000
 20
148.500000
  0
LWPOLYLINE
  5
14F
330
1F
100
AcDbEntity
  8
PATTERN
100
AcDbPolyline
 90
4
 70
1
 10
119.800000
 20
147.100000
 10
121.200000
 20
147.100000
 10
121.200000
 20
148.500000
 10
119.800000
 20
148.500000
  0
LWPOLYLINE
  5
150
330
1F
100
AcDbEntity
  8
PATTERN
100
AcDbPolyline
 90
4
 70
1
 10
112.800000
 20
145.700000
 10
114.200000
 20
145.700000
 10
114.200000
 20
147.100000
 10
112.800000
 20
147.100000
  0
LWPOLYLINE
  5
151
330
1F
100
AcDbEntity
  8
PATTERN
100
AcDbPolyline
 90
4
 70
1
 10
117.000000
 20
145.700000
 10
118.400000
 20
145.700000
 10
118.400000
 20
147.100000
 10
117.000000
 20
147.100000
  0
LWPOLYLINE
  5
152
330
1F
100
AcDbEntity
  8
PATTERN
100
AcDbPolyline
 90
4
 70
1
 10
119.800000
 20
145.700000
 10
121.200000
 20
145.700000
 10
121.200000
 20
147.100000
 10
119.800000
 20
147.100000
  0
LWPOLYLINE
  5
153
330
1F
100
AcDbEntity
  8
PATTERN
100
AcDbPolyline
 90
4
 70
1
 10
112.800000
 20
144.300000
 10
114.200000
 20
144.300000
 10
114.200000
 20
145.700000
 10
112.800000
 20
145.700000
  0
LWPOLYLINE
  5
154
330
1F
100
AcDbEntity
  8
PATTERN
100
AcDbPolyline
 90
4
 70
1
 10
114.200000
 20
144.300000
 10
115.600000
 20
144.300000
 10
115.600000
 20
145.700000
 10
114.200000
 20
145.700000
  0
LWPOLYLINE
  5
155
330
1F
100
AcDbEntity
  8
PATTERN
100
AcDbPolyline
 90
4
 70
1
 10
115.600000
 20
144.300000
 10
117.000000
 20
144.300000
 10
117.000000
 20
145.700000
 10
115.600000
 20
145.700000
  0
LWPOLYLINE
  5
156
330
1F
100
AcDbEntity
  8
PATTERN
100
AcDbPolyline
 90
4
 70
1
 10
117.000000
 20
144.300000
 10
118.400000
 20
144.300000
 10
118.400000
 20
145.700000
 10
117.000000
 20
145.700000
  0
LWPOLYLINE
  5
157
330
1F
100
AcDbEntity
  8
PATTERN
100
AcDbPolyline
 90
4
 70
1
 10
118.400000
 20
144.300000
 10
119.800000
 20
144.300000
 10
119.800000
 20
145.700000
 10
118.400000
 20
145.700000
  0
LWPOLYLINE
  5
158
330
1F
100
AcDbEntity
  8
PATTERN
100
AcDbPolyline
 90
4
 70
1
 10
119.800000
 20
144.300000
 10
121.200000
 20
144.300000
 10
121.200000
 20
145.700000
 10
119.800000
 20
145.700000
  0
LWPOLYLINE
  5
159
330
1F
100
AcDbEntity
  8
PATTERN
100
AcDbPolyline
 90
4
 70
1
 10
100.800000
 20
139.300000
 10
102.200000
 20
139.300000
 10
102.200000
 20
140.700000
 10
100.800000
 20
140.700000
  0
LWPOLYLINE
  5
15A
330
1F
100
AcDbEntity
  8
PATTERN
100
AcDbPolyline
 90
4
 70
1
 10
102.200000
 20
139.300000
 10
103.600000
 20
139.300000
 10
103.600000
 20
140.700000
 10
102.200000
 20
140.700000
  0
LWPOLYLINE
  5
15B
330
1F
100
AcDbEntity
  8
PATTERN
100
AcDbPolyline
 90
4
 70
1
 10
103.600000
 20
139.300000
 10
105.000000
 20
139.300000
 10
105.000000
 20
140.700000
 10
103.600000
 20
140.700000
  0
LWPOLYLINE
  5
15C
330
1F
100
AcDbEntity
  8
PATTERN
100
AcDbPolyline
 90
4
 70
1
 10
105.000000
 20
139.300000
 10
106.400000
 20
139.300000
 10
106.400000
 20
140.700000
 10
105.000000
 20
140.700000
  0
LWPOLYLINE
  5
15D
330
1F
100
AcDbEntity
  8
PATTERN
100
AcDbPolyline
 90
4
 70
1
 10
106.400000
 20
139.300000
 10
107.800000
 20
139.300000
 10
107.800000
 20
140.700000
 10
106.400000
 20
140.700000
  0
LWPOLYLINE
  5
15E
330
1F
100
AcDbEntity
  8
PATTERN
100
AcDbPolyline
 90
4
 70
1
 10
107.800000
 20
139.300000
 10
109.200000
 20
139.300000
 10
109.200000
 20
140.700000
 10
107.800000
 20
140.700000
  0
LWPOLYLINE
  5
15F
330
1F
100
AcDbEntity
  8
PATTERN
100
AcDbPolyline
 90
4
 70
1
 10
100.800000
 20
137.900000
 10
102.200000
 20
137.900000
 10
102.200000
 20
139.300000
 10
100.800000
 20
139.300000
  0
LWPOLYLINE
  5
160
330
1F
100
AcDbEntity
  8
PATTERN
100
AcDbPolyline
 90
4
 70
1
 10
103.600000
 20
137.900000
 10
105.000000
 20
137.900000
 10
105.000000
 20
139.300000
 10
103.600000
 20
139.300000
  0
LWPOLYLINE
  5
161
330
1F
100
AcDbEntity
  8
PATTERN
100
AcDbPolyline
 90
4
 70
1
 10
105.000000
 20
137.900000
 10
106.400000
 20
137.900000
 10
106.400000
 20
139.300000
 10
105.000000
 20
139.300000
  0
LWPOLYLINE
  5
162
330
1F
100
AcDbEntity
  8
PATTERN
100
AcDbPolyline
 90
4
 70
1
 10
107.800000
 20
137.900000
 10
109.200000
 20
137.900000
 10
109.200000
 20
139.300000
 10
107.800000
 20
139.300000
  0
LWPOLYLINE
  5
163
330
1F
100
AcDbEntity
  8
PATTERN
100
AcDbPolyline
 90
4
 70
1
 10
100.800000
 20
136.500000
 10
102.200000
 20
136.500000
 10
102.200000
 20
137.900000
 10
100.800000
 20
137.900000
  0
LWPOLYLINE
  5
164
330
1F
100
AcDbEntity
  8
PATTERN
100
AcDbPolyline
 90
4
 70
1
 10
103.600000
 20
136.500000
 10
105.000000
 20
136.500000
 10
105.000000
 20
137.900000
 10
103.600000
 20
137.900000
  0
LWPOLYLINE
  5
165
330
1F
100
AcDbEntity
  8
PATTERN
100
AcDbPolyline
 90
4
 70
1
 10
105.000000
 20
136.500000
 10
106.400000
 20
136.500000
 10
106.400000
 20
137.900000
 10
105.000000
 20
137.900000
  0
LWPOLYLINE
  5
166
330
1F
100
AcDbEntity
  8
PATTERN
100
AcDbPolyline
 90
4
 70
1
 10
107.800000
 20
136.500000
 10
109.200000
 20
136.500000
 10
109.200000
 20
137.900000
 10
107.800000
 20
137.900000
  0
LWPOLYLINE
  5
167
330
1F
100
AcDbEntity
  8
PATTERN
100
AcDbPolyline
 90
4
 70
1
 10
100.800000
 20
135.100000
 10
102.200000
 20
135.100000
 10
102.200000
 20
136.500000
 10
100.800000
 20
136.500000
  0
LWPOLYLINE
  5
168
330
1F
100
AcDbEntity
  8
PATTERN
100
AcDbPolyline
 90
4
 70
1
 10
102.200000
 20
135.100000
 10
103.600000
 20
135.100000
 10
103.600000
 20
136.500000
 10
102.200000
 20
136.500000
  0
LWPOLYLINE
  5
169
330
1F
100
AcDbEntity
  8
PATTERN
100
AcDbPolyline
 90
4
 70
1
 10
105.000000
 20
135.100000
 10
106.400000
 20
135.100000
 10
106.400000
 20
136.500000
 10
105.000000
 20
136.500000
  0
LWPOLYLINE
  5
16A
330
1F
100
AcDbEntity
  8
PATTERN
100
AcDbPolyline
 90
4
 70
1
 10
106.400000
 20
135.100000
 10
107.800000
 20
135.100000
 10
107.800000
 20
136.500000
 10
106.400000
 20
136.500000
  0
LWPOLYLINE
  5
16B
330
1F
100
AcDbEntity
  8
PATTERN
100
AcDbPolyline
 90
4
 70
1
 10
107.800000
 20
135.100000
 10
109.200000
 20
135.100000
 10
109.200000
 20
136.500000
 10
107.800000
 20
136.500000
  0
LWPOLYLINE
  5
16C
330
1F
100
AcDbEntity
  8
PATTERN
100
AcDbPolyline
 90
4
 70
1
 10
100.800000
 20
133.700000
 10
102.200000
 20
133.700000
 10
102.200000
 20
135.100000
 10
100.800000
 20
135.100000
  0
LWPOLYLINE
  5
16D
330
1F
100
AcDbEntity
  8
PATTERN
100
AcDbPolyline
 90
4
 70
1
 10
102.200000
 20
133.700000
 10
103.600000
 20
133.700000
 10
103.600000
 20
135.100000
 10
102.200000
 20
135.100000
  0
LWPOLYLINE
  5
16E
330
1F
100
AcDbEntity
  8
PATTERN
100
AcDbPolyline
 90
4
 70
1
 10
106.400000
 20
133.700000
 10
107.800000
 20
133.700000
 10
107.800000
 20
135.100000
 10
106.400000
 20
135.100000
  0
LWPOLYLINE
  5
16F
330
1F
100
AcDbEntity
  8
PATTERN
100
AcDbPolyline
 90
4
 70
1
 10
107.800000
 20
133.700000
 10
109.200000
 20
133.700000
 10
109.200000
 20
135.100000
 10
107.800000
 20
135.100000
  0
LWPOLYLINE
  5
170
330
1F
100
AcDbEntity
  8
PATTERN
100
AcDbPolyline
 90
4
 70
1
 10
100.800000
 20
132.300000
 10
102.200000
 20
132.300000
 10
102.200000
 20
133.700000
 10
100.800000
 20
133.700000
  0
LWPOLYLINE
  5
171
330
1F
100
AcDbEntity
  8
PATTERN
100
AcDbPolyline
 90
4
 70
1
 10
102.200000
 20
132.300000
 10
103.600000
 20
132.300000
 10
103.600000
 20
133.700000
 10
102.200000
 20
133.700000
  0
LWPOLYLINE
  5
172
330
1F
100
AcDbEntity
  8
PATTERN
100
AcDbPolyline
 90
4
 70
1
 10
103.600000
 20
132.300000
 10
105.000000
 20
132.300000
 10
105.000000
 20
133.700000
 10
103.600000
 20
133.700000
  0
LWPOLYLINE
  5
173
330
1F
100
AcDbEntity
  8
PATTERN
100
AcDbPolyline
 90
4
 70
1
 10
105.000000
 20
132.300000
 10
106.400000
 20
132.300000
 10
106.400000
 20
133.700000
 10
105.000000
 20
133.700000
  0
LWPOLYLINE
  5
174
330
1F
100
AcDbEntity
  8
PATTERN
100
AcDbPolyline
 90
4
 70
1
 10
106.400000
 20
132.300000
 10
107.800000
 20
132.300000
 10
107.800000
 20
133.700000
 10
106.400000
 20
133.700000
  0
LWPOLYLINE
  5
175
330
1F
100
AcDbEntity
  8
PATTERN
100
AcDbPolyline
 90
4
 70
1
 10
107.800000
 20
132.300000
 10
109.200000
 20
132.300000
 10
109.200000
 20
133.700000
 10
107.800000
 20
133.700000
  0
ENDSEC
  0
EOF
